<svg width="50" height="58" viewBox="0 0 50 58" fill="none" xmlns="http://www.w3.org/2000/svg">
<path d="M5.35714 3.57144C2.39955 3.57144 0 5.971 0 8.92858V48.2143C0 51.1719 2.39955 53.5714 5.35714 53.5714H44.6429C47.6004 53.5714 50 51.1719 50 48.2143V8.92858C50 5.971 47.6004 3.57144 44.6429 3.57144H5.35714ZM16.3929 18.4413C18.5844 18.4413 20.5315 19.199 21.9653 20.3354C23.2912 21.3903 23.9122 22.4455 24.4539 23.3926L20.6679 25.2843C20.397 24.6632 20.0711 24.0134 19.2342 23.3108C18.3136 22.5796 17.3951 22.364 16.6087 22.364C13.5254 22.364 11.9022 25.2315 11.9022 28.4228C11.9022 32.6162 14.0407 34.6973 16.6087 34.6973C19.0975 34.6973 20.0996 32.9663 20.7471 31.8586L24.5089 33.779C23.8041 34.8868 23.1279 35.9704 21.6127 37.0233C20.8022 37.5914 18.9367 38.7016 16.285 38.7016C11.2261 38.7016 7.14286 35.0234 7.14286 28.5569C7.14286 22.9056 10.9838 18.4412 16.3929 18.4412V18.4413ZM24.8173 19.036H29.9027L33.8516 32.6161L37.7718 19.036H42.8571L36.23 38.1333H31.3627L24.8173 19.0361V19.036Z" fill="#FF4D05"/>
</svg>
