<?xml version="1.0" encoding="iso-8859-1"?>
<!-- Generator: Adobe Illustrator 18.0.0, SVG Export Plug-In . SVG Version: 6.00 Build 0)  -->
<!DOCTYPE svg PUBLIC "-//W3C//DTD SVG 1.1//EN" "http://www.w3.org/Graphics/SVG/1.1/DTD/svg11.dtd">
<svg version="1.1" id="Capa_1" xmlns="http://www.w3.org/2000/svg" xmlns:xlink="http://www.w3.org/1999/xlink" x="0px" y="0px"
	 viewBox="0 0 440.378 440.378" style="enable-background:new 0 0 440.378 440.378;" xml:space="preserve">
<g>
	<path fill="#fff" d="M377.704,99.532c1.017-4.282,1.529-8.674,1.529-13.121c0-31.298-25.463-56.761-56.762-56.761
		c-22.706,0-43.002,13.705-51.935,33.859C253.09,37.19,223.8,21.254,191.672,21.254c-37.961,0-72.318,22.895-87.119,57.499
		c-8.962-3.582-18.437-5.394-28.237-5.394C34.235,73.36,0,107.595,0,149.676c0,16.753,5.329,32.652,15.41,45.979
		c8.826,11.669,21.02,20.672,34.684,25.692c-0.458,2.917-0.689,5.862-0.689,8.798c0,31.299,25.463,56.762,56.762,56.762
		c9.1,0,17.985-2.167,25.999-6.307c13.095,23.972,38.427,39.183,65.985,39.183c29.574,0,56.091-17.261,68.257-43.684
		c10.325,9.17,23.674,14.308,37.662,14.308c14.234,0,27.848-5.293,38.333-14.905c9.119-8.359,15.201-19.348,17.449-31.362
		c2.569,0.274,5.132,0.413,7.663,0.413c40.178,0,72.866-32.688,72.866-72.866C440.378,135.067,413.318,104.503,377.704,99.532z
		 M367.513,234.553c-3.63,0-7.346-0.333-11.044-0.988c-1.376-0.243-2.792,0.1-3.904,0.947c-1.111,0.848-1.817,2.122-1.947,3.514
		c-2.244,24.161-22.255,42.381-46.55,42.381c-13.742,0-26.736-6.021-35.652-16.52c-1.167-1.373-2.981-2.013-4.75-1.675
		c-1.769,0.338-3.22,1.602-3.797,3.308c-8.964,26.475-33.768,44.263-61.72,44.263c-25.488,0-48.78-15.01-59.339-38.241
		c-0.602-1.325-1.751-2.321-3.147-2.73c-0.461-0.135-0.934-0.201-1.404-0.201c-0.955,0-1.9,0.273-2.718,0.803
		c-7.568,4.902-16.342,7.493-25.374,7.493c-25.785,0-46.762-20.978-46.762-46.762c0-3.675,0.44-7.369,1.309-10.979
		c0.621-2.582-0.884-5.199-3.428-5.96C29.444,204.878,10,178.753,10,149.676c0-36.567,29.75-66.316,66.316-66.316
		c10.093,0,19.784,2.209,28.804,6.565c1.274,0.615,2.749,0.662,4.06,0.128c1.311-0.534,2.333-1.598,2.815-2.928
		c12.103-33.418,44.122-55.871,79.676-55.871c32.188,0,61.191,17.886,75.693,46.677c0.955,1.897,3.007,2.981,5.11,2.709
		c2.106-0.274,3.809-1.849,4.248-3.927c4.528-21.476,23.768-37.063,45.749-37.063c25.785,0,46.762,20.977,46.762,46.761
		c0,5.424-0.925,10.747-2.75,15.82c-0.535,1.488-0.335,3.141,0.54,4.458s2.32,2.143,3.899,2.227
		c33.34,1.781,59.456,29.353,59.456,62.771C430.378,206.351,402.177,234.553,367.513,234.553z"/>
	<path fill="#fff" d="M204.9,117.974c-0.207-0.003-0.411-0.004-0.617-0.004c-24.784,0-45.135,19.983-45.496,44.826
		c-0.131,9.066,2.399,17.857,7.318,25.423c6.494,9.989,9.926,21.431,9.926,33.089v7.155c0,15.577,12.672,28.249,28.249,28.249
		c15.577,0,28.249-12.672,28.249-28.249v-7.149c0-11.468,3.506-23.026,10.139-33.425c4.651-7.292,7.11-15.736,7.11-24.419
		C249.778,138.714,229.646,118.305,204.9,117.974z M222.529,228.462c0,10.063-8.187,18.249-18.249,18.249
		s-18.249-8.187-18.249-18.249v-7.155c0-2.052-0.102-4.097-0.282-6.131h37.074c-0.188,2.043-0.294,4.09-0.294,6.137V228.462z
		 M234.238,182.51c-4.565,7.156-7.836,14.815-9.743,22.666H209.28v-18.554l13.469-11.713c2.083-1.812,2.304-4.97,0.492-7.054
		c-1.812-2.083-4.971-2.303-7.054-0.492l-11.906,10.354l-11.906-10.354c-2.084-1.812-5.242-1.592-7.054,0.492
		s-1.592,5.242,0.492,7.054l13.468,11.713v18.554h-15.157c-1.876-7.876-5.111-15.451-9.634-22.408
		c-3.833-5.896-5.806-12.752-5.703-19.828c0.281-19.382,16.159-34.97,35.499-34.97c0.159,0,0.321,0.001,0.481,0.003
		c19.306,0.258,35.012,16.182,35.012,35.495C239.778,170.243,237.862,176.827,234.238,182.51z"/>
	<path fill="#fff" d="M204.281,104.592c2.761,0,5-2.239,5-5V75.141c0-2.761-2.239-5-5-5s-5,2.239-5,5v24.451
		C199.281,102.353,201.52,104.592,204.281,104.592z"/>
	<path fill="#fff" d="M151.725,127.048l-21.175-12.226c-2.393-1.381-5.45-0.562-6.83,1.83c-1.381,2.392-0.562,5.449,1.83,6.83l21.175,12.226
		c0.788,0.455,1.647,0.671,2.495,0.671c1.728,0,3.409-0.897,4.335-2.501C154.936,131.486,154.117,128.429,151.725,127.048z"/>
	<path d="M283.011,202.846l-21.175-12.226c-2.392-1.381-5.45-0.561-6.83,1.83c-1.381,2.392-0.562,5.449,1.83,6.83l21.175,12.226
		c0.788,0.455,1.647,0.671,2.495,0.671c1.728,0,3.409-0.897,4.335-2.501C286.222,207.285,285.403,204.227,283.011,202.846z"/>
	<path fill="#fff" d="M146.725,190.621l-21.175,12.226c-2.392,1.381-3.211,4.438-1.83,6.83c0.926,1.604,2.606,2.501,4.335,2.501
		c0.848,0,1.708-0.216,2.495-0.671l21.175-12.226c2.392-1.381,3.211-4.438,1.83-6.83C152.174,190.06,149.117,189.24,146.725,190.621
		z"/>
	<path fill="#fff" d="M278.011,114.822l-21.175,12.226c-2.392,1.381-3.211,4.438-1.83,6.83c0.926,1.604,2.606,2.501,4.335,2.501
		c0.848,0,1.708-0.216,2.495-0.671l21.175-12.226c2.392-1.381,3.211-4.438,1.83-6.83
		C283.46,114.262,280.404,113.442,278.011,114.822z"/>
	<path fill="#fff" d="M325.413,346.373c0-19.417-15.797-35.214-35.214-35.214s-35.214,15.797-35.214,35.214
		c0,19.417,15.797,35.214,35.214,35.214S325.413,365.79,325.413,346.373z M290.198,371.586c-13.903,0-25.214-11.311-25.214-25.214
		c0-13.903,11.311-25.214,25.214-25.214s25.214,11.311,25.214,25.214C315.413,360.275,304.102,371.586,290.198,371.586z"/>
	<path fill="#fff" d="M323.697,384.98c-9.414,0-17.072,7.658-17.072,17.072s7.658,17.072,17.072,17.072s17.072-7.658,17.072-17.072
		S333.111,384.98,323.697,384.98z M323.697,409.124c-3.899,0-7.072-3.172-7.072-7.072s3.172-7.072,7.072-7.072
		s7.072,3.172,7.072,7.072S327.597,409.124,323.697,409.124z"/>
</g>
<g>
</g>
<g>
</g>
<g>
</g>
<g>
</g>
<g>
</g>
<g>
</g>
<g>
</g>
<g>
</g>
<g>
</g>
<g>
</g>
<g>
</g>
<g>
</g>
<g>
</g>
<g>
</g>
<g>
</g>
</svg>
