<?xml version="1.0" encoding="iso-8859-1"?>
<!-- Generator: Adobe Illustrator 17.1.0, SVG Export Plug-In . SVG Version: 6.00 Build 0)  -->
<!DOCTYPE svg PUBLIC "-//W3C//DTD SVG 1.1//EN" "http://www.w3.org/Graphics/SVG/1.1/DTD/svg11.dtd">
<svg version="1.1" id="Capa_1" xmlns="http://www.w3.org/2000/svg" xmlns:xlink="http://www.w3.org/1999/xlink" x="0px" y="0px"
	 viewBox="0 0 267.311 267.311" style="enable-background:new 0 0 267.311 267.311;" xml:space="preserve">
<path d="M203.797,65.273h-18.185V43.256l0.031-0.009l18.69,5.198C204.68,53.562,204.637,59.781,203.797,65.273z M250.916,65.273
	c0,35.18-27.98,63.932-62.854,65.212v11.568c0,8.696-7.074,15.77-15.77,15.77h-62.563v10.837h62.563
	c8.696,0,15.77,7.075,15.77,15.771v17.376c0,8.696-7.074,15.77-15.77,15.77h-62.563v13.766c4.326,1.894,7.803,5.37,9.697,9.697
	h61.136c4.142,0,7.5,3.358,7.5,7.5s-3.358,7.5-7.5,7.5h-61.136c-2.901,6.626-9.513,11.271-17.197,11.271
	s-14.296-4.645-17.197-11.271H23.896c-4.142,0-7.5-3.358-7.5-7.5s3.358-7.5,7.5-7.5h61.137c1.894-4.326,5.371-7.803,9.697-9.697
	v-13.766H32.166c-8.696,0-15.77-7.074-15.77-15.77v-17.376c0-8.696,7.074-15.771,15.77-15.771h62.563v-10.837H32.166
	c-8.696,0-15.77-7.074-15.77-15.77v-17.377c0-8.696,7.074-15.77,15.77-15.77h62.563V98.069H32.166
	c-8.696,0-15.77-7.075-15.77-15.771V64.922c0-8.696,7.074-15.77,15.77-15.77h90.222C129.584,20.932,155.213,0,185.643,0
	C221.634,0,250.916,29.282,250.916,65.273z M137.145,108.906c-2.991-3.321-5.636-6.955-7.903-10.837h-19.513v10.837H137.145z
	 M218.709,41.56c-0.412-2.959-2.541-5.393-5.419-6.193l-25.638-7.13c-1.314-0.366-2.704-0.366-4.019,0l-25.639,7.13
	c-2.879,0.8-5.008,3.233-5.419,6.193c-0.402,2.895-3.651,28.688,6.072,42.731c9.852,14.231,24.611,17.932,25.235,18.083
	c0.579,0.14,1.17,0.209,1.761,0.209c0.591,0,1.182-0.07,1.761-0.209c0.624-0.151,15.382-3.852,25.235-18.083
	C222.361,70.247,219.112,44.455,218.709,41.56z M185.612,65.273h-18.124c0.64,4.187,1.742,7.953,3.492,10.48
	c4.844,6.997,11.485,10.225,14.632,11.436V65.273z"/>
<g>
</g>
<g>
</g>
<g>
</g>
<g>
</g>
<g>
</g>
<g>
</g>
<g>
</g>
<g>
</g>
<g>
</g>
<g>
</g>
<g>
</g>
<g>
</g>
<g>
</g>
<g>
</g>
<g>
</g>
</svg>
